-
http:// www. Speed. Cd       
http:// www. Speed. Cd       the fast  and The Hottest Private Tracker on the net

Please Seed back to make the speed Faster!!!

and don't forget to visit      ...... www. Speed. Cd..........
-[img]http://noob.hu/2011/03/26/o-three-new-mars-needs-moms-posters.jpg[/img]

::::::::::::::Enjoy:Another:Release:From:T0XiCiNK::::::::::::::

File:: Mars.Needs.Moms.2011.TS.XViD-T0XiCiNK

Video Source:: Own
Audio Source:: IMAGiNE thx
Language::English
IMDB:: http://www.imdb.com/title/tt1305591/

A young boy named Milo gains a deeper appreciation for his 
mom after Martians come to Earth to take her away.

Specs::

General

Format                           : AVI
Format/Info                      : Audio Video Interleave
File size                        : 1.36 GiB
Duration                         : 1h 20mn
Overall bit rate                 : 2 400 Kbps
Writing application              : VirtualDubMod 1.5.10.2 (build 2540/release)
Writing library                  : VirtualDubMod build 2540/release

Video
ID                               : 0
Format                           : MPEG-4 Visual
Format profile                   : Advanced Simple@L5
Format settings, BVOP            : Yes
Format settings, QPel            : No
Format settings, GMC             : No warppoints
Format settings, Matrix          : Default (MPEG)
Codec ID                         : XVID
Codec ID/Hint                    : XviD
Duration                         : 1h 20mn
Bit rate                         : 2 132 Kbps
Width                            : 720 pixels
Height                           : 336 pixels
Display aspect ratio             : 2.2:1
Frame rate                       : 29.970 fps
Color space                      : YUV
Chroma subsampling               : 4:2:0
Bit depth                        : 8 bits
Scan type                        : Progressive
Bits/(Pixel*Frame)               : 0.294
Stream size                      : 1.20 GiB (89%)
Writing library                  : XviD 1.2.0.dev47 (UTC 2006-11-01)

Audio
ID                               : 1
Format                           : MPEG Audio
Format version                   : Version 1
Format profile                   : Layer 3
Codec ID                         : 55
Codec ID/Hint                    : MP3
Duration                         : 1h 20mn
Bit rate mode                    : Constant
Bit rate                         : 256 Kbps
Channel(s)                       : 2 channels
Sampling rate                    : 44.1 KHz
Stream size                      : 148 MiB (11%)
Alignment                        : Split accross interleaves
Interleave, duration             : 33 ms (1.00 video frame)
Interleave, preload duration     : 500 ms


NOTES:: Presenting a better quality Mars Needs Moms. Special thanks to IMAGiNE for the audio and 
HEHE for the hook up. Also, the CAM takes a sec to steady out, we didn't wan't to crop anymore then 
we had to.
Enjoy.


::Why Complain? Whats Free Is Free::

::We are always looking for friends with unreleased DVD's, Screeners, R5's, Audio, Cams, Silvers,
...and any other good sources you may have to offer - 
..contact us: t0xicreleases@hushmail.com or digital.ink@live.com

::::::::::::::::::::::::::::::::::::   Respect To   :::::::::::::::::::::::::::::::::::::
::FLAWL3SS,Rx,HEHE,Hive-CM8,Tranz,Vik,OneTwo,Joey,bob,Unevano,SANTi & our friends on utn and PA::
                       "and to all of you who support us, Thank-You"


[img]http://noob.hu/2011/03/26/vlcsnap-2011-03-26-15h14m05s147.png[/img]
[img]http://noob.hu/2011/03/26/vlcsnap-2011-03-26-15h15m16s99.png[/img]
[img]http://noob.hu/2011/03/26/vlcsnap-2011-03-26-15h15m54s9.png[/img]
[img]http://noob.hu/2011/03/26/vlcsnap-2011-03-26-15h11m21s48.png[/img]
[img]http://noob.hu/2011/03/26/vlcsnap-2011-03-26-15h14m35s206.png[/img]